<svg width="21" height="18" viewBox="0 0 21 18" fill="none" xmlns="http://www.w3.org/2000/svg">
<path d="M19.7106 6.4833L18.2742 2.68461C18.0658 2.13155 17.665 1.65043 17.1288 1.30963C16.5925 0.968831 15.948 0.785677 15.2869 0.786195H5.71305C5.05196 0.785677 4.40749 0.968831 3.87123 1.30963C3.33496 1.65043 2.93417 2.13155 2.7258 2.68461L1.2894 6.4833C0.907434 6.62419 0.581238 6.86148 0.35182 7.16533C0.122402 7.46918 -5.04945e-07 7.82604 0 8.19104V12.8191C0 13.5022 0.4242 14.0927 1.05 14.4139V16.5215C1.05 16.767 1.16062 17.0024 1.35754 17.176C1.55445 17.3496 1.82152 17.4471 2.1 17.4471H3.15C3.42848 17.4471 3.69555 17.3496 3.89246 17.176C4.08938 17.0024 4.2 16.767 4.2 16.5215V14.6703H16.8V16.5215C16.8 16.767 16.9106 17.0024 17.1075 17.176C17.3044 17.3496 17.5715 17.4471 17.85 17.4471H18.9C19.1785 17.4471 19.4455 17.3496 19.6425 17.176C19.8394 17.0024 19.95 16.767 19.95 16.5215V14.4139C20.2686 14.2528 20.5333 14.0206 20.7177 13.7406C20.902 13.4607 20.9994 13.1428 21 12.8191V8.19104C21 7.82604 20.8776 7.46918 20.6482 7.16533C20.4188 6.86148 20.0926 6.62419 19.7106 6.4833ZM5.71305 2.63741H15.2859C15.7385 2.63741 16.1395 2.89102 16.2823 3.27052L17.4436 6.33983H3.55635L4.7166 3.27052C4.78627 3.08613 4.92 2.92576 5.09885 2.81212C5.2777 2.69849 5.49259 2.63736 5.71305 2.63741ZM3.675 11.8935C3.4681 11.8934 3.26324 11.8574 3.07211 11.7876C2.88099 11.7177 2.70734 11.6154 2.56109 11.4863C2.41484 11.3573 2.29884 11.2042 2.21973 11.0357C2.14061 10.8671 2.09993 10.6865 2.1 10.5041C2.10007 10.3217 2.14089 10.1412 2.22013 9.97267C2.29937 9.80419 2.41548 9.65111 2.56183 9.52219C2.70818 9.39326 2.8819 9.29101 3.07308 9.22127C3.26426 9.15153 3.46915 9.11566 3.67605 9.11572C4.0939 9.11584 4.49459 9.26229 4.78996 9.52284C5.08533 9.78339 5.25119 10.1367 5.25105 10.5051C5.25091 10.8734 5.08478 11.2266 4.78922 11.487C4.49365 11.7474 4.09285 11.8936 3.675 11.8935ZM17.325 11.8935C17.1181 11.8934 16.9132 11.8574 16.7221 11.7876C16.531 11.7177 16.3573 11.6154 16.2111 11.4863C16.0648 11.3573 15.9488 11.2042 15.8697 11.0357C15.7906 10.8671 15.7499 10.6865 15.75 10.5041C15.7501 10.3217 15.7909 10.1412 15.8701 9.97267C15.9494 9.80419 16.0655 9.65111 16.2118 9.52219C16.3582 9.39326 16.5319 9.29101 16.7231 9.22127C16.9143 9.15153 17.1191 9.11566 17.326 9.11572C17.7439 9.11584 18.1446 9.26229 18.44 9.52284C18.7353 9.78339 18.9012 10.1367 18.901 10.5051C18.9009 10.8734 18.7348 11.2266 18.4392 11.487C18.1437 11.7474 17.7429 11.8936 17.325 11.8935Z" fill="#333333"/>
</svg>
