<svg width="21" height="20" viewBox="0 0 21 20" fill="none" xmlns="http://www.w3.org/2000/svg">
<path d="M9.37502 10.1166C9.37502 10.3783 9.49354 10.6292 9.70452 10.8142C9.91549 10.9992 10.2016 11.1031 10.5 11.1031C10.7984 11.1031 11.0845 10.9992 11.2955 10.8142C11.5065 10.6292 11.625 10.3783 11.625 10.1166C11.625 9.85501 11.5065 9.60409 11.2955 9.41908C11.0845 9.23408 10.7984 9.13014 10.5 9.13014C10.2016 9.13014 9.91549 9.23408 9.70452 9.41908C9.49354 9.60409 9.37502 9.85501 9.37502 10.1166ZM14.0625 10.1166C14.0625 10.3783 14.181 10.6292 14.392 10.8142C14.6029 10.9992 14.8891 11.1031 15.1874 11.1031C15.4858 11.1031 15.772 10.9992 15.9829 10.8142C16.1939 10.6292 16.3124 10.3783 16.3124 10.1166C16.3124 9.85501 16.1939 9.60409 15.9829 9.41908C15.772 9.23408 15.4858 9.13014 15.1874 9.13014C14.8891 9.13014 14.6029 9.23408 14.392 9.41908C14.181 9.60409 14.0625 9.85501 14.0625 10.1166ZM4.68757 10.1166C4.68757 10.3783 4.8061 10.6292 5.01707 10.8142C5.22805 10.9992 5.5142 11.1031 5.81256 11.1031C6.11092 11.1031 6.39707 10.9992 6.60805 10.8142C6.81902 10.6292 6.93755 10.3783 6.93755 10.1166C6.93755 9.85501 6.81902 9.60409 6.60805 9.41908C6.39707 9.23408 6.11092 9.13014 5.81256 9.13014C5.5142 9.13014 5.22805 9.23408 5.01707 9.41908C4.8061 9.60409 4.68757 9.85501 4.68757 10.1166ZM20.1843 6.5488C19.6546 5.44515 18.8952 4.45454 17.9273 3.60368C16.9661 2.75775 15.825 2.08534 14.5687 1.62452C13.2797 1.14976 11.9109 0.909302 10.5 0.909302H10.4531C9.03283 0.915467 7.65707 1.16209 6.36333 1.64712C5.11778 2.11267 3.98742 2.78628 3.03525 3.6304C2.07667 4.4792 1.32434 5.4657 0.804029 6.56524C0.264973 7.70383 -0.0068982 8.91435 0.000132966 10.1598C0.0080858 11.5871 0.393156 12.9933 1.12512 14.2682V17.3921C1.12512 17.6428 1.23871 17.8833 1.44089 18.0606C1.64308 18.2379 1.9173 18.3375 2.20323 18.3375H5.76803C7.22183 18.9793 8.82548 19.317 10.4531 19.324H10.5023C11.9062 19.324 13.2679 19.0856 14.5499 18.6191C15.7999 18.1637 16.9367 17.4991 17.8968 16.6625C18.8647 15.8219 19.6264 14.8395 20.1585 13.7441C20.7116 12.6096 20.9928 11.4032 20.9999 10.1577C21.0069 8.90613 20.7303 7.6915 20.1843 6.5488ZM16.6429 15.5506C14.9999 16.9769 12.8203 17.762 10.5 17.762H10.4602C9.04689 17.7559 7.64301 17.4476 6.40318 16.868L6.20631 16.7755H2.90635V13.8818L2.80088 13.7092C2.13995 12.6219 1.78839 11.3909 1.78136 10.1516C1.77199 8.10254 2.66494 6.17886 4.3032 4.72994C5.93912 3.28101 8.12581 2.47948 10.4625 2.47126H10.5023C11.6742 2.47126 12.8109 2.67062 13.882 3.06522C14.9273 3.44954 15.8648 4.00239 16.671 4.70939C17.4749 5.41432 18.1077 6.23846 18.546 7.15509C19.0007 8.10459 19.228 9.11165 19.2233 10.1516C19.2093 12.1986 18.2929 14.1161 16.6429 15.5506Z" fill="#188AEC"/>
</svg>
