<svg width="20" height="20" viewBox="0 0 20 20" fill="none" xmlns="http://www.w3.org/2000/svg">
<path d="M8.592 0.466467C8.99135 0.185523 9.48802 0.0324097 10 0.0324097C10.512 0.0324097 11.0087 0.185523 11.408 0.466467L19.158 5.91809C19.4208 6.10296 19.6329 6.33723 19.7786 6.60359C19.9243 6.86995 20 7.1616 20 7.45703V17.3484C20 17.8716 19.7629 18.3735 19.341 18.7435C18.919 19.1135 18.3467 19.3214 17.75 19.3214H15.25C14.6533 19.3214 14.081 19.1135 13.659 18.7435C13.2371 18.3735 13 17.8716 13 17.3484V11.6486C13 11.4741 12.921 11.3069 12.7803 11.1835C12.6397 11.0602 12.4489 10.9909 12.25 10.9909H7.75C7.55109 10.9909 7.36032 11.0602 7.21967 11.1835C7.07902 11.3069 7 11.4741 7 11.6486V17.3484C7 17.8716 6.76295 18.3735 6.34099 18.7435C5.91903 19.1135 5.34674 19.3214 4.75 19.3214H2.25C1.65326 19.3214 1.08097 19.1135 0.65901 18.7435C0.237053 18.3735 0 17.8716 0 17.3484V7.45703C0 6.85812 0.31 6.29252 0.842 5.91809L8.592 0.466467Z" fill="#333333"/>
</svg>
